<svg id="Capa_1" enable-background="new 0 0 510 510" height="512" viewBox="0 0 510 510" width="512" xmlns="http://www.w3.org/2000/svg" xmlns:xlink="http://www.w3.org/1999/xlink"><linearGradient id="lg1"><stop offset="0" stop-color="#fccece"/><stop offset="1" stop-color="#fba5c2"/></linearGradient><linearGradient id="SVGID_1_" gradientUnits="userSpaceOnUse" x1="254.218" x2="285.218" xlink:href="#lg1" y1="212.919" y2="483.919"/><linearGradient id="lg2"><stop offset="0" stop-color="#fccece" stop-opacity="0"/><stop offset="1" stop-color="#bb4966"/></linearGradient><linearGradient id="SVGID_2_" gradientUnits="userSpaceOnUse" x1="330.661" x2="129.661" xlink:href="#lg2" y1="327.025" y2="117.025"/><linearGradient id="SVGID_3_" gradientUnits="userSpaceOnUse" x1="113.228" x2="11.228" xlink:href="#lg2" y1="291.069" y2="251.069"/><linearGradient id="SVGID_4_" gradientUnits="userSpaceOnUse" x1="342.643" x2="243.189" xlink:href="#lg2" y1="122.788" y2="84.794"/><linearGradient id="SVGID_5_" gradientUnits="userSpaceOnUse" x1="303.534" x2="140.921" xlink:href="#lg2" y1="356.213" y2="407.774"/><linearGradient id="SVGID_6_" gradientTransform="matrix(0 -1 -1 0 -2682 -1618)" gradientUnits="userSpaceOnUse" x1="-1834.93" x2="-1831.433" xlink:href="#lg1" y1="-2893.158" y2="-2839.835"/><linearGradient id="SVGID_7_" gradientUnits="userSpaceOnUse" x1="206.229" x2="213.563" xlink:href="#lg2" y1="247.024" y2="317.024"/><linearGradient id="SVGID_8_" gradientTransform="matrix(0 -1 -1 0 -2682 -1618)" gradientUnits="userSpaceOnUse" x1="-1836.354" x2="-1831.132" xlink:href="#lg1" y1="-2973.577" y2="-2889.153"/><linearGradient id="SVGID_9_" gradientUnits="userSpaceOnUse" x1="265.542" x2="274.898" y1="244.595" y2="333.911"><stop offset="0" stop-color="#fba5c2" stop-opacity="0"/><stop offset="1" stop-color="#a34a9e"/></linearGradient><linearGradient id="SVGID_10_" gradientTransform="matrix(0 -1 1 0 -210.662 -1618)" gradientUnits="userSpaceOnUse" x1="-2130.023" x2="-2023.426" y1="352.621" y2="544.012"><stop offset="0" stop-color="#ff4974"/><stop offset=".4497" stop-color="#fe4773"/><stop offset=".6292" stop-color="#fc406d"/><stop offset=".7605" stop-color="#f73464"/><stop offset=".8683" stop-color="#f12257"/><stop offset=".9606" stop-color="#e80c46"/><stop offset="1" stop-color="#e4003d"/></linearGradient><linearGradient id="SVGID_11_" gradientUnits="userSpaceOnUse" x1="258.099" x2="398.502" xlink:href="#lg1" y1="171.797" y2="442.291"/><radialGradient id="SVGID_12_" cx="266.915" cy="325.433" gradientTransform="matrix(1 0 0 .738 0 85.265)" gradientUnits="userSpaceOnUse" r="88.754"><stop offset="0" stop-color="#a34a9e"/><stop offset=".6733" stop-color="#dd86b6" stop-opacity=".327"/><stop offset="1" stop-color="#fba5c2" stop-opacity="0"/></radialGradient><path d="m400.25 279.495c-.38-.486-.768-.967-1.163-1.444l-37.385-45.114c-.201-1.727-.432-3.452-.681-5.176.163-.42.319-.848.465-1.284l.573-1.71c12.031-35.899 29.518-162.086 26.635-199.463-2.326-30.16-49.922-34.874-59.631-5.905-7.524 22.452-27.691 115.635-31.479 155.464h-61.684-65.755c-.919-40.885-6.283-81.774-15.995-121.425-9.859-40.25-54.431-35.639-55.843 5.776-1.629 47.806 2.93 96.053 13.435 142.752.793 3.525.666 7.172-.247 10.667-.147.563-.284 1.13-.412 1.701-11.122 49.718.213 101.159 15.345 150.571 6.251 20.414 7.219 42.302.168 62.454v33.263h215.66v-33.262s0 0 0-.001c-6.109-17.365.319-36.651 15.599-46.892l28.784-19.291c27.205-18.232 33.795-55.891 13.611-81.681z" fill="url(#SVGID_1_)"/><path d="m399.087 278.051-8.147-9.832-93.356-93.357h-61.684-65.755c-.117-5.201-.308-10.403-.568-15.602-8.227 37.963-8.112 76.808.385 114.743l.411 1.836c1.385 6.182 4.709 11.104 9.168 14.799l162.714 162.714v-25.992s0 0 0-.001c-6.109-17.365.319-36.651 15.599-46.892l28.784-19.291c27.205-18.232 33.795-55.891 13.611-81.681-.378-.485-.766-.967-1.162-1.444z" fill="url(#SVGID_2_)"/><path d="m111.501 212.607c-.002.009-.004.018-.006.028-.147.563-.285 1.129-.412 1.701-11.122 49.718.213 101.159 15.345 150.571 6.251 20.414 7.219 42.302.168 62.454v33.263h109.304v-285.76h-65.755c-49.383-.001-58.374 36.596-58.644 37.743z" fill="url(#SVGID_3_)"/><path d="m294.423 218.862.137 1.781c2.299 29.801 57.332 34.459 66.925 5.835l.573-1.71c12.031-35.899 29.518-162.087 26.636-199.463-2.326-30.161-49.922-34.874-59.631-5.905-12.031 35.899-37.523 162.086-34.64 199.462z" fill="url(#SVGID_4_)"/><path d="m234.822 396.606c0 22.506 4.028 44.07 11.393 64.017h96.04v-33.263c-.038-.108-.076-.217-.113-.325-5.978-17.333.718-36.519 15.949-46.727l28.547-19.132c27.205-18.232 33.795-55.891 13.611-81.681-.38-.486-.768-.967-1.163-1.444l-37.386-45.114c-.44-3.781-1.01-7.555-1.687-11.32-72.813 24.807-125.191 93.78-125.191 174.989z" fill="url(#SVGID_5_)"/><path d="m239.005 274.004-.411 1.836c-6.884 30.734-61.336 30.734-68.221 0l-.411-1.836c-8.634-38.546-8.634-78.034 0-116.581 6.967-31.104 62.076-31.104 69.043 0 8.635 38.546 8.635 78.035 0 116.581z" fill="url(#SVGID_6_)"/><path d="m207.211 220.78c-15.943 0-30.791 3.635-43.298 9.88.821 14.513 2.835 28.994 6.049 43.343l.411 1.836c6.884 30.734 61.336 30.734 68.221 0l.411-1.836c3.396-15.16 5.435-30.466 6.16-45.802-11.31-4.731-24.228-7.421-37.954-7.421z" fill="url(#SVGID_7_)"/><path d="m294.464 282.412-.366 2.1c-6.13 35.152-54.613 35.152-60.743 0l-.366-2.1c-7.688-44.088-7.688-89.254 0-133.342 6.204-35.576 55.271-35.576 61.475 0 7.688 44.088 7.688 89.254 0 133.342z" fill="url(#SVGID_8_)"/><path d="m265.604 210.988c-13.985 0-27.077 3.338-38.333 9.135.235 20.852 2.126 41.688 5.719 62.289l.366 2.101c6.13 35.153 54.613 35.153 60.743 0l.366-2.1c3.696-21.193 5.595-42.636 5.738-64.088-10.381-4.68-22.134-7.337-34.599-7.337z" fill="url(#SVGID_9_)"/><path d="m355.865 434.162v52.281c0 13.01-10.547 23.557-23.557 23.557h-194.971c-13.01 0-23.557-10.547-23.557-23.557v-52.281c0-13.01 10.547-23.557 23.557-23.557h194.971c13.01-.001 23.557 10.546 23.557 23.557z" fill="url(#SVGID_10_)"/><path d="m386.639 361.176c27.205-18.232 33.795-55.891 13.611-81.681-.38-.486-.768-.967-1.163-1.444l-37.846-45.669c-9.643-11.637-25.137-16.662-39.775-12.901l-86.833 22.311c-10.645 2.735-16.924 13.727-13.874 24.285 6.818 23.6 30.45 38.158 54.595 33.631l13.034-2.444c5.855-1.098 11.874.764 16.087 4.977l17.782 17.782c5.102 5.102 7.968 12.021 7.968 19.236v18.813c0 17.46 19.48 27.855 33.985 18.135z" fill="url(#SVGID_11_)"/><path d="m386.639 361.176c27.205-18.232 33.795-55.891 13.611-81.681-.38-.486-.768-.967-1.163-1.444l-37.846-45.669c-9.643-11.637-25.137-16.662-39.775-12.901l-86.833 22.311c-10.645 2.735-16.924 13.727-13.874 24.285 6.818 23.6 30.45 38.158 54.595 33.631l13.034-2.444c5.855-1.098 11.874.764 16.087 4.977l17.782 17.782c5.102 5.102 7.968 12.021 7.968 19.236v18.813c0 17.46 19.48 27.855 33.985 18.135z" fill="url(#SVGID_12_)"/></svg>