<svg xmlns="http://www.w3.org/2000/svg" width="170" height="170" viewBox="0 0 170 170" fill="none">
<path d="M30.456 14.2285C30.456 14.2285 31.3585 15.0165 32.2205 16.094C32.4966 16.4375 32.6919 16.8415 32.7795 17.2726C32.9209 17.9662 32.8872 18.9966 31.9983 20.0338L28.7993 23.226L23.6002 28.2029L19.6604 32.0012V19.4209H21.3778H25.56L29.1764 19.394C29.9644 19.3872 30.7254 19.0505 31.2103 18.4377C31.5336 18.0268 31.7693 17.4746 31.6885 16.7405C31.6885 16.7405 31.3787 15.2791 30.456 14.2285Z" fill="url(#paint0_linear)"/>
<path fill-rule="evenodd" clip-rule="evenodd" d="M25.5533 19.4211L29.1698 19.3941C29.9577 19.3874 30.7188 19.0507 31.2037 18.4378C31.5269 18.027 31.7626 17.4748 31.6818 16.7407C31.6818 16.7407 31.372 15.2793 30.4561 14.2354C30.4561 14.2354 30.6043 14.3634 30.8265 14.5789L17.6873 0.665158C17.1754 0.139858 16.8589 0.294754 16.8589 0.294754V12.2285L23.4993 19.4211H25.5533Z" fill="url(#paint1_linear)"/>
<path d="M2.02253 16.7395C1.94172 17.4735 2.1707 18.0258 2.50069 18.4366C2.99232 19.0494 3.7466 19.3862 4.53455 19.3929L8.15104 19.4198H12.3332H14.0506V31.9934L10.1108 28.195L4.91168 23.2182L1.71274 20.0259C0.823772 18.9888 0.790099 17.9584 0.931526 17.2648C1.01908 16.8337 1.21438 16.4297 1.4905 16.0862C2.35926 15.0087 3.25497 14.2207 3.25497 14.2207C2.33233 15.278 2.02253 16.7395 2.02253 16.7395Z" fill="url(#paint2_linear)"/>
<path fill-rule="evenodd" clip-rule="evenodd" d="M8.15107 19.4211L4.53458 19.3941C3.74663 19.3874 2.98562 19.0507 2.50072 18.4378C2.17746 18.027 1.94175 17.4748 2.02256 16.7407C2.02256 16.7407 2.33236 15.2793 3.24827 14.2354C3.24827 14.2354 3.1001 14.3634 2.87786 14.5789L16.0238 0.665158C16.5357 0.139858 16.8522 0.294754 16.8522 0.294754V12.2285L10.2119 19.4211H8.15107Z" fill="url(#paint3_linear)"/>
<defs>
<linearGradient id="paint0_linear" x1="20.0415" y1="16.2525" x2="29.744" y2="29.0672" gradientUnits="userSpaceOnUse">
<stop stop-color="#00b884"/>
<stop offset="0.5156" stop-color="#00b884"/>
<stop offset="1" stop-color="#00b884"/>
</linearGradient>
<linearGradient id="paint1_linear" x1="34.8556" y1="26.9785" x2="14.4021" y2="1.76964" gradientUnits="userSpaceOnUse">
<stop offset="0.0601" stop-color="#56f"/>
<stop offset="0.5208" stop-color="#56f"/>
<stop offset="1" stop-color="#56f"/>
</linearGradient>
<linearGradient id="paint2_linear" x1="13.6666" y1="16.2515" x2="3.96419" y2="29.0661" gradientUnits="userSpaceOnUse">
<stop stop-color="#ffc800"/>
<stop offset="0.5156" stop-color="#ffc800"/>
<stop offset="1" stop-color="#ffc800"/>
</linearGradient>
<linearGradient id="paint3_linear" x1="-1.14735" y1="26.9785" x2="19.3062" y2="1.76964" gradientUnits="userSpaceOnUse">
<stop offset="0.0312" stop-color="#fd7171"/>
<stop offset="0.4688" stop-color="#fd7171"/>
<stop offset="1" stop-color="#fd7171"/>
</linearGradient>
</defs>
</svg>
