<svg width="64" height="64" viewBox="0 0 64 64" fill="none" xmlns="http://www.w3.org/2000/svg">
<path d="M24.6403 32.3379L21.7959 29.4934L24.427 32.089L24.6403 32.3379Z" fill="#57f"/>
<path d="M31.7873 45.4934L25.6006 51.68L33.8139 43.4312L33.5295 43.7512L31.7873 45.4934Z" fill="#57f"/>
<path d="M45.1918 32.0889L40.2852 36.9956L58.5607 18.6844L51.8763 25.4044L45.1918 32.0889Z" fill="#57f"/>
<path d="M36.0184 20.9244L30.1162 26.8267L31.5384 25.4044L36.0184 20.9244Z" fill="#57f"/>
<path d="M42.1343 14.8088L38.2588 18.6844L42.1343 14.8088Z" fill="#fd71af"/>
<path d="M62.8627 12H48.9249C45.8315 12 44.3738 12.5689 42.1338 14.8089L38.2227 18.72H58.5604L63.5382 13.7422C64.2493 13.0311 64.0004 12 62.8627 12Z" fill="#fd71af"/>
<path d="M38.2586 18.6844L36.0186 20.9244L38.2586 18.6844Z" fill="#49ccf9"/>
<path d="M36.0181 20.9244L31.5381 25.4044H51.8759L58.5603 18.6844H38.2581L36.0181 20.9244Z" fill="#49ccf9"/>
<path d="M21.796 29.4933C19.556 27.2533 18.0982 26.6844 15.0049 26.6844H1.10265C-0.0351261 26.6844 -0.284015 27.7156 0.391541 28.3911L4.08932 32.0889H24.4271L21.796 29.4933Z" fill="#ffc800"/>
<path d="M29.583 27.8222C29.583 27.8933 29.583 27.9999 29.6186 28.0711C29.6897 28.2844 29.7608 28.4266 30.1163 28.7822L33.4586 32.1244H45.1919L51.8763 25.4399H31.5386L30.1163 26.8622C29.7608 27.2177 29.6897 27.3599 29.6186 27.5733C29.6186 27.6444 29.583 27.7155 29.583 27.8222Z" fill="#ffc800"/>
<path d="M4.08887 32.0889L10.7733 38.8089L4.08887 32.0889Z" fill="#00b884"/>
<path d="M31.1111 38.8089L24.64 32.3378L24.4266 32.0889H4.08887L10.7733 38.8089H31.1111Z" fill="#00b884"/>
<path d="M33.458 32.0889L38.3647 36.9955C38.7202 37.3511 38.8625 37.4222 39.0758 37.4933C39.1469 37.5289 39.2536 37.5289 39.3247 37.5289C39.3958 37.5289 39.5025 37.5289 39.5736 37.4933C39.7869 37.4222 39.9291 37.3511 40.2847 36.9955L45.1913 32.0889H33.458Z" fill="#00b884"/>
<path d="M34.3468 42.4711C34.3468 42.3999 34.3468 42.2933 34.3112 42.2222C34.2401 42.0088 34.169 41.8666 33.8134 41.5111L31.1112 38.8088H10.7734L17.4579 45.4933H31.7512L33.4934 43.7511L33.8134 43.4311C34.169 43.0755 34.2401 42.9333 34.3112 42.72C34.3468 42.6488 34.3468 42.5777 34.3468 42.4711Z" fill="#fd7171"/>
<path d="M17.4941 45.4934L23.6808 51.6801L17.4941 45.4934Z" fill="#7b68ee"/>
<path d="M17.4941 45.4934L23.6808 51.6801C24.0364 52.0356 24.1786 52.1067 24.3919 52.1779C24.463 52.2134 24.5697 52.2134 24.6408 52.2134C24.7119 52.2134 24.8186 52.2134 24.8897 52.1779C25.103 52.1067 25.2453 52.0356 25.6008 51.6801L31.7875 45.4934H17.4941V45.4934Z" fill="#7b68ee"/>
</svg>
