<?xml version="1.0" ?><svg viewBox="0 0 24 24" xmlns="http://www.w3.org/2000/svg"><title/><g id="Excel"><g data-name="&lt;Group&gt;" id="_Group_"><polygon data-name="&lt;Path&gt;" id="_Path_" points="13.5 0.5 0.5 3 0.5 21 13.5 23.5 13.5 0.5" style="fill:none;stroke:#303c42;stroke-linecap:round;stroke-linejoin:round"/><polyline data-name="&lt;Path&gt;" id="_Path_2" points="13.5 3.5 23.5 3.5 23.5 20.5 13.5 20.5" style="fill:none;stroke:#303c42;stroke-linecap:round;stroke-linejoin:round"/><rect data-name="&lt;Rectangle&gt;" height="1" id="_Rectangle_" style="fill:none;stroke:#303c42;stroke-linecap:round;stroke-linejoin:round" width="3" x="13.5" y="5.5"/><rect data-name="&lt;Rectangle&gt;" height="1" id="_Rectangle_2" style="fill:none;stroke:#303c42;stroke-linecap:round;stroke-linejoin:round" width="3" x="18.5" y="5.5"/><rect data-name="&lt;Rectangle&gt;" height="1" id="_Rectangle_3" style="fill:none;stroke:#303c42;stroke-linecap:round;stroke-linejoin:round" width="3" x="13.5" y="8.5"/><rect data-name="&lt;Rectangle&gt;" height="1" id="_Rectangle_4" style="fill:none;stroke:#303c42;stroke-linecap:round;stroke-linejoin:round" width="3" x="18.5" y="8.5"/><rect data-name="&lt;Rectangle&gt;" height="1" id="_Rectangle_5" style="fill:none;stroke:#303c42;stroke-linecap:round;stroke-linejoin:round" width="3" x="13.5" y="11.5"/><rect data-name="&lt;Rectangle&gt;" height="1" id="_Rectangle_6" style="fill:none;stroke:#303c42;stroke-linecap:round;stroke-linejoin:round" width="3" x="18.5" y="11.5"/><rect data-name="&lt;Rectangle&gt;" height="1" id="_Rectangle_7" style="fill:none;stroke:#303c42;stroke-linecap:round;stroke-linejoin:round" width="3" x="13.5" y="14.5"/><rect data-name="&lt;Rectangle&gt;" height="1" id="_Rectangle_8" style="fill:none;stroke:#303c42;stroke-linecap:round;stroke-linejoin:round" width="3" x="18.5" y="14.5"/><rect data-name="&lt;Rectangle&gt;" height="1" id="_Rectangle_9" style="fill:none;stroke:#303c42;stroke-linecap:round;stroke-linejoin:round" width="3" x="13.5" y="17.5"/><rect data-name="&lt;Rectangle&gt;" height="1" id="_Rectangle_10" style="fill:none;stroke:#303c42;stroke-linecap:round;stroke-linejoin:round" width="3" x="18.5" y="17.5"/><line data-name="&lt;Path&gt;" id="_Path_3" style="fill:none;stroke:#303c42;stroke-linecap:round;stroke-linejoin:round" x1="4.5" x2="8.5" y1="8.5" y2="16.5"/><line data-name="&lt;Path&gt;" id="_Path_4" style="fill:none;stroke:#303c42;stroke-linecap:round;stroke-linejoin:round" x1="4.5" x2="8.5" y1="16.5" y2="8.5"/></g></g></svg>