<svg id="Capa_1" enable-background="new 0 0 510 510" height="512" viewBox="0 0 510 510" width="512" xmlns="http://www.w3.org/2000/svg" xmlns:xlink="http://www.w3.org/1999/xlink"><linearGradient id="SVGID_1_" gradientUnits="userSpaceOnUse" x1="188.166" x2="363.384" y1="108.933" y2="446.5"><stop offset="0" stop-color="#fccece"/><stop offset="1" stop-color="#fba5c2"/></linearGradient><linearGradient id="lg1"><stop offset="0" stop-color="#fccece" stop-opacity="0"/><stop offset="1" stop-color="#bb4966"/></linearGradient><linearGradient id="SVGID_2_" gradientUnits="userSpaceOnUse" x1="335.118" x2="75.98" xlink:href="#lg1" y1="323.341" y2="332.892"/><linearGradient id="SVGID_3_" gradientTransform="matrix(0 1 1 0 541.966 -541.966)" gradientUnits="userSpaceOnUse" x1="952.464" x2="1057.867" y1="-400.245" y2="-210.998"><stop offset="0" stop-color="#3fa9f5"/><stop offset="1" stop-color="#666ad6"/></linearGradient><linearGradient id="SVGID_4_" gradientUnits="userSpaceOnUse" x1="242.096" x2="222.54" xlink:href="#lg1" y1="220.659" y2="100.256"/><linearGradient id="lg2"><stop offset="0" stop-color="#fba5c2" stop-opacity="0"/><stop offset="1" stop-color="#a34a9e"/></linearGradient><linearGradient id="SVGID_5_" gradientUnits="userSpaceOnUse" x1="234.049" x2="234.038" xlink:href="#lg2" y1="177.108" y2="177.04"/><linearGradient id="SVGID_6_" gradientUnits="userSpaceOnUse" x1="234.8" x2="234.791" xlink:href="#lg2" y1="176.995" y2="176.94"/><linearGradient id="SVGID_7_" gradientUnits="userSpaceOnUse" x1="208.668" x2="276.668" xlink:href="#lg1" y1="106.173" y2="104.173"/><linearGradient id="SVGID_8_" gradientUnits="userSpaceOnUse" x1="257.89" x2="363.89" xlink:href="#lg1" y1="89.205" y2="106.538"/><linearGradient id="SVGID_9_" gradientUnits="userSpaceOnUse" x1="333.527" x2="396.194" xlink:href="#lg1" y1="105.954" y2="126.62"/><linearGradient id="SVGID_10_" gradientUnits="userSpaceOnUse" x1="252.875" x2="298.494" xlink:href="#lg1" y1="316.794" y2="120.967"/><linearGradient id="lg3"><stop offset="0" stop-color="#a34a9e"/><stop offset="1" stop-color="#343168"/></linearGradient><linearGradient id="SVGID_11_" gradientTransform="matrix(.635 -.773 -.773 -.635 -1276.513 -639.589)" gradientUnits="userSpaceOnUse" x1="287.478" x2="287.478" xlink:href="#lg3" y1="-1940.14" y2="-1955.173"/><linearGradient id="lg4"><stop offset="0" stop-color="#343168"/><stop offset="1" stop-color="#a34a9e"/></linearGradient><linearGradient id="SVGID_12_" gradientUnits="userSpaceOnUse" x1="108.811" x2="86.811" xlink:href="#lg4" y1="81.537" y2="66.037"/><linearGradient id="SVGID_13_" gradientUnits="userSpaceOnUse" x1="78.531" x2="56.531" xlink:href="#lg4" y1="61.346" y2="45.846"/><linearGradient id="SVGID_14_" gradientTransform="matrix(.635 -.773 -.773 -.635 -1276.513 -639.589)" gradientUnits="userSpaceOnUse" x1="283.701" x2="283.701" xlink:href="#lg3" y1="-1978.798" y2="-1993.831"/><path d="m460.159 198.097-12.399-2.84c-24.222-5.549-49.416 3.904-64.009 24.017l-21.201 29.219c-.911 1.255-1.728 2.576-2.435 3.956-2.641 5.149-6.651 9.359-11.482 12.263 0 0-1.032-34.89-2.297-40.542l-2.642-11.81c-2.697-12.054-2.725-24.541-.113-36.614 8.288-38.316 17.222-108.802 15.401-132.402-1.757-22.777-37.7-26.336-45.032-4.46-5.223 15.585-12.366 94.27-18.374 137.367-.298 2.139-3.461 1.897-3.428-.263.765-49.783-1.707-137.03-4.917-156.045-4.603-27.271-40.71-26.292-45.237 1.226-3.1 18.843-4.673 104.923-6.127 154.325-.064 2.16-3.237 2.263-3.436.111-4.042-43.628-12.246-123.107-17.696-138.715-7.531-21.567-43.187-15.803-44.672 7.222-1.078 16.714 7.48 103.282 12.276 145.711.235 2.076-2.734 2.7-3.356.705-10.694-34.338-27.326-105.072-33.918-116.359-11.521-19.726-45.414-7.242-42.463 15.641 2.368 18.364 20.446 81.563 31.791 118.308l-7.451 33.306c-10.178 45.496-6.872 75.313 6.975 120.529 5.72 18.68 6.606 38.709.154 57.149v30.438h197.344v-30.44c-.035-.099-.069-.198-.103-.297-5.47-15.861.657-33.417 14.594-42.758l9.963-4.863c20.257-9.887 36.045-27.045 44.217-48.053l8.039-20.666c10.937-28.114 27.923-53.48 49.755-74.298l8.355-7.967c7.503-7.155 4.032-19.786-6.076-22.101z" fill="url(#SVGID_1_)"/><path d="m466.235 220.199-8.357 7.965c-17.411 16.608-31.746 36.101-42.376 57.58-2.703 5.453-5.167 11.031-7.383 16.723l-8.032 20.667c-8.175 21.002-23.962 38.164-44.219 48.049l-9.961 4.861c-13.944 9.34-20.066 26.894-14.593 42.758.029.095.067.201.096.296v30.438h-95.362c-9.742-17.602-15.376-37.82-15.558-59.347-.602-68.974 54.83-125.379 123.804-125.972 1.442-.01 2.884 0 4.317.029.01.306.019.468.019.468.239-.143.478-.286.707-.449 4.517-2.875 8.271-6.924 10.773-11.814.716-1.385 1.528-2.703 2.435-3.964l21.202-29.215c14.593-20.113 39.788-29.568 64.008-24.02l12.406 2.846c10.105 2.312 13.581 14.947 6.074 22.101z" fill="url(#SVGID_2_)"/><path d="m354.787 483.984v-44.689c0-14.368-11.648-26.016-26.016-26.016h-190.455c-14.368 0-26.016 11.648-26.016 26.016v44.689c0 14.368 11.648 26.016 26.016 26.016h190.456c14.367 0 26.015-11.648 26.015-26.016z" fill="url(#SVGID_3_)"/><path d="m348.632 264.71s-1.032-34.89-2.297-40.542l-2.642-11.81c-1.617-7.229-2.267-14.614-1.971-21.972-13.273-6.031-29.123-10.587-46.593-13.167-.772.818-2.273.64-2.794-.393-9.771-1.313-20.021-2.013-30.589-2.013-8.953 0-17.676.506-26.076 1.457-.539 1.053-2.071 1.186-2.824.338-18.986 2.399-36.216 7.106-50.503 13.516-.058 1.448-1.761 2.04-2.762 1.282-23.919 11.411-38.9 27.736-38.9 45.869 0 34.497 54.203 62.462 121.065 62.462 25.399 0 48.97-4.036 68.438-10.932 10.364-3.67 17.562-13.137 18.448-24.095z" fill="url(#SVGID_4_)"/><path d="m234.339 177.15c-.19.03-.39.02-.57-.02.19.04.38.04.57.02z" fill="url(#SVGID_5_)"/><path d="m234.589 177.1c.15-.03.3-.09.43-.16-.14.08-.28.14-.43.16z" fill="url(#SVGID_6_)"/><path d="m232.429 175.6c.04.42.19.76.42 1.01-18.99 2.4-36.22 7.1-50.5 13.51 0-.1 0-.2-.01-.3-4.52-39.97-12.37-119.12-12.37-142.12 0-1.42.03-2.62.09-3.59.85-13.16 12.87-20.68 24.41-20.68 8.65 0 17.04 4.22 20.27 13.46 5.45 15.61 13.65 95.08 17.69 138.71z" fill="url(#SVGID_7_)"/><path d="m292.149 175.99c0 .32.06.61.18.84-9.77-1.32-20.01-2.02-30.58-2.02-8.95 0-17.68.51-26.08 1.46.12-.22.19-.48.2-.78.72-24.7 1.48-58.57 2.44-88.62.97-30.05 2.14-56.28 3.68-65.7 2.31-14.04 12.84-21.17 23.21-21.17 9.96 0 19.78 6.58 22.03 19.94 3.21 19.02 5.68 106.26 4.92 156.05z" fill="url(#SVGID_8_)"/><path d="m343.579 175.74c-1.09 5.02-1.71 10.11-1.88 15.2.01-.18.01-.37.02-.55-13.27-6.04-29.12-10.59-46.59-13.17.23-.23.39-.56.45-.97 3-21.55 6.29-51.99 9.48-79s6.28-50.57 8.89-58.37c3.34-9.96 12.61-14.64 21.89-14.64 11.09 0 22.19 6.7 23.14 19.1 1.82 23.6-7.11 94.09-15.4 132.4z" fill="url(#SVGID_9_)"/><path d="m228.736 242.773c-41.105 0-78.613 12.212-107.108 32.309-2.339 28.842 2.138 53.72 12.289 86.869 5.72 18.68 6.606 38.709.154 57.149v30.438h197.344v-30.438c-.035-.099-.069-.198-.103-.297-5.47-15.861.657-33.417 14.594-42.758l9.963-4.863c12.271-5.99 22.886-14.66 31.178-25.225-14.643-58.824-79.95-103.184-158.311-103.184z" fill="url(#SVGID_10_)"/><path d="m414.913 378.584c-6.724 8.18-15.538 13.626-25.034 16.203-6.733 1.828-13.498-2.822-14.177-9.765l-.096-.98c-.54-5.524 3.068-10.474 8.406-11.995 4.839-1.379 9.323-4.193 12.761-8.374 3.437-4.182 5.33-9.126 5.746-14.14.459-5.531 4.617-10.029 10.141-10.568l.98-.096c6.944-.678 12.815 5.059 12.325 12.018-.691 9.815-4.328 19.517-11.052 27.697z" fill="url(#SVGID_11_)"/><path d="m75.994 60.979c5.064-9.299 12.697-16.306 21.538-20.624 6.269-3.062 13.788.232 15.761 6.924l.278.944c1.569 5.324-1.042 10.864-5.999 13.362-4.494 2.265-8.368 5.872-10.957 10.626s-3.518 9.965-2.983 14.969c.59 5.519-2.647 10.718-7.971 12.288l-.944.278c-6.692 1.973-13.538-2.558-14.366-9.485-1.168-9.77.578-19.983 5.643-29.282z" fill="url(#SVGID_12_)"/><path d="m45.713 40.788c5.064-9.299 12.697-16.306 21.538-20.624 6.269-3.062 13.788.232 15.761 6.924l.278.944c1.569 5.324-1.042 10.864-5.999 13.362-4.494 2.265-8.368 5.872-10.957 10.626s-3.518 9.965-2.983 14.969c.59 5.519-2.647 10.718-7.971 12.288l-.944.278c-6.692 1.973-13.538-2.558-14.366-9.485-1.168-9.77.579-19.983 5.643-29.282z" fill="url(#SVGID_13_)"/><path d="m442.379 406.05c-6.724 8.18-15.538 13.626-25.034 16.203-6.733 1.828-13.498-2.822-14.177-9.765l-.096-.98c-.54-5.524 3.068-10.474 8.406-11.995 4.839-1.379 9.323-4.193 12.761-8.374s5.33-9.126 5.746-14.14c.459-5.531 4.617-10.029 10.141-10.568l.98-.096c6.944-.678 12.815 5.059 12.325 12.018-.691 9.815-4.328 19.517-11.052 27.697z" fill="url(#SVGID_14_)"/></svg>